<?xml version="1.0" encoding="UTF-8" standalone="no"?>
<!-- Created with Inkscape (http://www.inkscape.org/) -->

<svg
   width="52.931854mm"
   height="52.916664mm"
   viewBox="0 0 52.931854 52.916664"
   version="1.1"
   id="svg314"
   inkscape:version="1.2 (dc2aedaf03, 2022-05-15)"
   sodipodi:docname="RastriyaSwatantraParty.svg"
   xmlns:inkscape="http://www.inkscape.org/namespaces/inkscape"
   xmlns:sodipodi="http://sodipodi.sourceforge.net/DTD/sodipodi-0.dtd"
   xmlns="http://www.w3.org/2000/svg"
   xmlns:svg="http://www.w3.org/2000/svg">
  <sodipodi:namedview
     id="namedview316"
     pagecolor="#ffffff"
     bordercolor="#000000"
     borderopacity="0.25"
     inkscape:showpageshadow="2"
     inkscape:pageopacity="0.0"
     inkscape:pagecheckerboard="0"
     inkscape:deskcolor="#d1d1d1"
     inkscape:document-units="mm"
     showgrid="false"
     inkscape:zoom="1.0076756"
     inkscape:cx="305.65391"
     inkscape:cy="135.46026"
     inkscape:window-width="1920"
     inkscape:window-height="991"
     inkscape:window-x="-9"
     inkscape:window-y="-9"
     inkscape:window-maximized="1"
     inkscape:current-layer="layer1" />
  <defs
     id="defs311" />
  <g
     inkscape:label="Layer 1"
     inkscape:groupmode="layer"
     id="layer1"
     transform="translate(-3.1763093,-34.607077)">
    <path
       style="fill:#000000;stroke-width:0.063739"
       d="M 26.896989,87.444068 C 23.781917,87.107709 20.903809,86.290222 18.129928,84.953908 16.85381,84.339139 16.202785,83.96803 14.998957,83.16913 9.0761978,79.238603 5.0330651,73.236343 3.625072,66.283963 3.2431384,64.398054 3.1763093,63.619696 3.1763093,61.057354 c 0,-2.502617 0.071452,-3.375666 0.4167827,-5.092461 C 4.1927303,52.983838 5.3383021,49.988297 6.8340878,47.490065 10.689612,41.050642 17.032655,36.55387 24.368606,35.059319 c 1.900209,-0.387129 2.63881,-0.451035 5.226609,-0.452226 2.598048,-0.0012 3.359841,0.06374 5.258476,0.448253 7.012089,1.420085 13.062557,5.525608 16.996975,11.533232 2.329406,3.556865 3.726662,7.531174 4.166143,11.85002 0.107668,1.058126 0.12409,3.951606 0.02823,4.977103 -0.510988,5.466955 -2.561328,10.411887 -6.082814,14.670299 -0.733489,0.886987 -2.41951,2.573013 -3.306504,3.306506 -3.970999,3.283808 -8.46626,5.258424 -13.582367,5.96627 -1.25274,0.173325 -4.895234,0.223626 -6.17637,0.08529 z m 4.833485,-0.796878 c 2.348264,-0.196006 4.820237,-0.75163 6.979431,-1.568764 1.192111,-0.451141 3.37437,-1.529993 4.423564,-2.186886 6.468099,-4.049642 10.778457,-10.591849 11.886844,-18.041708 0.416286,-2.797982 0.332998,-6.124967 -0.221788,-8.859735 -1.712416,-8.441248 -7.576433,-15.518385 -15.514967,-18.724639 -2.18253,-0.881491 -4.439037,-1.451673 -6.915694,-1.747482 -0.4513,-0.0539 -1.450615,-0.08289 -2.80452,-0.08136 -2.32018,0.0026 -3.250338,0.08918 -5.132507,0.477603 -4.991508,1.030092 -9.573719,3.534984 -13.133687,7.179608 -2.0194213,2.067441 -3.4781882,4.138255 -4.7517732,6.745447 -1.2449255,2.548522 -1.9934807,5.049173 -2.39453,7.99926 -0.1945394,1.431004 -0.2110847,4.822484 -0.030315,6.21456 0.3027509,2.331483 0.8154735,4.373304 1.616558,6.43765 0.3248249,0.837051 1.4068943,3.015014 1.8944278,3.813053 3.5182714,5.759036 8.9901774,9.868947 15.4051024,11.57066 1.353749,0.359118 3.270001,0.686293 4.646422,0.793317 0.667258,0.05188 3.34221,0.03828 4.047432,-0.02057 z M 28.48217,80.406041 c -0.02036,-0.03293 -0.01814,-0.177862 0.0049,-0.322074 0.03597,-0.224906 0.01903,-0.286655 -0.119093,-0.434106 -0.371381,-0.396474 -0.621223,-1.181048 -0.621223,-1.950811 v -0.485728 l 1.896239,0.01689 1.89624,0.01689 0.02024,0.283795 c 0.04543,0.637354 -0.227491,1.590219 -0.592406,2.068285 -0.187164,0.2452 -0.207077,0.309295 -0.177529,0.571459 l 0.03328,0.295282 h -1.151833 c -0.649533,0 -1.167965,-0.02611 -1.188832,-0.05987 z m -1.659608,-3.893607 c -2.279028,-0.105461 -4.72739,-0.327529 -7.043172,-0.638819 -2.177391,-0.292682 -5.17192,-0.81296 -5.274709,-0.91644 -0.02613,-0.0263 -0.04703,-0.310604 -0.04645,-0.631779 8.68e-4,-0.476421 0.03328,-0.671988 0.176011,-1.062001 0.09622,-0.262925 0.241182,-0.561043 0.322129,-0.662488 l 0.147176,-0.184443 2.162638,0.358592 c 3.219368,0.533806 5.32273,0.801354 8.377202,1.06559 1.49521,0.129347 5.540835,0.148473 7.258267,0.03431 2.981237,-0.198163 5.795347,-0.540805 9.232169,-1.124101 1.02427,-0.173843 1.905901,-0.316073 1.959176,-0.316073 0.126042,0 0.398115,0.43459 0.55189,0.881547 0.141457,0.41114 0.219148,1.109961 0.159028,1.430413 -0.04942,0.263455 -0.03013,0.256967 -1.632274,0.549173 -2.910066,0.53076 -5.993572,0.909791 -9.146563,1.124318 -1.734285,0.117999 -5.5809,0.167241 -7.20252,0.0922 z m 0.573652,-3.29145 c -4.027015,-0.245542 -7.101717,-0.616468 -10.564758,-1.274508 -1.381299,-0.262472 -1.409804,-0.286638 -0.848742,-0.719493 0.542985,-0.41891 1.683929,-1.636235 2.13946,-2.282686 1.743868,-2.474751 2.719523,-5.449139 2.952949,-9.002375 0.01966,-0.299339 0.04077,-0.348856 0.144453,-0.338874 0.06678,0.0064 0.637709,0.07008 1.268727,0.141451 5.283494,0.597567 8.943251,0.598692 14.3413,0.0044 0.631017,-0.06947 1.20756,-0.13998 1.281205,-0.156691 0.127704,-0.02898 0.135853,0.0012 0.176043,0.653641 0.123283,2.001159 0.689586,4.35587 1.483618,6.168959 0.353111,0.806284 1.120829,2.109142 1.654541,2.80784 0.512303,0.670671 1.21228,1.406626 1.819816,1.913359 0.278251,0.23208 0.495618,0.454322 0.483029,0.493868 -0.0442,0.138869 -1.359675,0.509474 -2.72334,0.767244 -3.078478,0.581913 -6.957139,0.876323 -11.249955,0.853931 -1.121807,-0.0059 -2.183063,-0.0194 -2.358346,-0.03007 z m 0.76487,-13.955338 c -1.501077,-0.04895 -3.676392,-0.167875 -5.09269,-0.278415 -2.015874,-0.157339 -1.895333,-0.05321 -1.772444,-1.531133 l 0.04505,-0.541783 0.350565,0.0083 c 0.192811,0.0046 0.995924,0.06799 1.784695,0.140977 2.5888,0.239564 3.757658,0.293668 6.278301,0.290606 2.551276,-0.0031 4.203671,-0.08796 6.770829,-0.347714 0.674036,-0.0682 1.277849,-0.124004 1.341803,-0.124004 0.102129,0 0.125892,0.09691 0.195252,0.79611 0.08434,0.850259 0.06119,0.986371 -0.19074,1.121197 -0.402533,0.215433 -7.277011,0.545253 -9.71062,0.465895 z m -0.767169,-2.705025 c -2.322686,-0.114814 -5.74646,-0.61415 -5.936995,-0.865872 -0.239676,-0.316648 0.536717,-1.006518 1.445687,-1.284571 0.390056,-0.11932 1.207822,-0.27211 1.958316,-0.365891 0.3187,-0.03982 0.341337,-0.03248 0.528218,0.171296 l 0.195248,0.212905 h 0.995099 0.995096 l 0.07585,0.223087 0.07585,0.223087 h 1.89812 1.898124 l 0.07277,-0.223087 0.07277,-0.223087 h 0.993838 0.993843 l 0.19997,-0.213218 c 0.191454,-0.204145 0.214239,-0.211435 0.535227,-0.171298 1.443824,0.180543 2.339701,0.42149 2.809773,0.755702 0.382338,0.27183 0.627878,0.600065 0.603565,0.806834 -0.02156,0.183475 -0.131366,0.215615 -1.643949,0.481234 -2.552649,0.448263 -5.762103,0.621385 -8.766427,0.472879 z m 1.21541,-3.741544 c 0.131776,-4.266379 0.116344,-4.008098 0.248151,-4.153742 0.107834,-0.119159 0.120433,-0.221618 0.106569,-0.866922 -0.01458,-0.678232 0.0291,-0.868736 0.153125,-0.668052 0.02166,0.03506 0.07355,0.06355 0.115306,0.06332 0.04175,-2.65e-4 -0.01014,-0.05705 -0.115306,-0.126262 -0.332234,-0.218648 -0.414303,-0.4587 -0.414303,-1.21184 0,-0.532844 0.02448,-0.717042 0.118753,-0.893342 0.147702,-0.27624 0.461288,-0.465926 0.797184,-0.482216 l 0.256524,-0.01244 0.0033,-0.624155 c 0.0019,-0.343284 -0.0066,-0.572569 -0.0187,-0.509522 -0.0187,0.0972 -0.07042,0.109985 -0.340026,0.08408 -0.174885,-0.0168 -0.288885,-0.01258 -0.253338,0.0094 0.03555,0.02197 0.07383,0.259908 0.08507,0.528751 l 0.02046,0.488806 -0.207154,0.09877 -0.207152,0.09877 v -0.675049 c 0,-0.616638 0.0097,-0.671363 0.111542,-0.63245 0.06135,0.02343 0.01116,-0.06108 -0.111542,-0.187803 -0.22034,-0.227566 -0.223357,-0.238204 -0.244995,-0.864387 L 28.690914,41.6488 h 0.197192 0.197189 v 0.514816 c 0,0.484022 0.01116,0.525961 0.186316,0.70113 0.102473,0.102474 0.240149,0.186315 0.305948,0.186315 0.0658,0 0.15405,0.03442 0.196119,0.07649 0.05667,0.05667 0.07649,0.05731 0.07649,0.0025 0,-0.04072 -0.111388,-0.104024 -0.24753,-0.140683 -0.328502,-0.08846 -0.444058,-0.223465 -0.270688,-0.31625 0.232341,-0.124347 0.551303,-0.08146 0.731065,0.09831 0.216483,0.216483 0.248508,0.415022 0.222783,1.381103 -0.0198,0.74353 -0.03232,0.812564 -0.174934,0.964184 -0.180747,0.19217 -0.526197,0.273703 -0.742362,0.175212 -0.213054,-0.09707 -0.13597,-0.248147 0.168441,-0.330116 0.148677,-0.04003 0.274574,-0.122931 0.315658,-0.207844 0.06302,-0.130252 0.06113,-0.132303 -0.02433,-0.02635 -0.05097,0.06319 -0.19592,0.143407 -0.322111,0.17825 -0.325346,0.08983 -0.421386,0.310662 -0.418601,0.962533 0.0014,0.360246 0.03344,0.579849 0.100011,0.688361 0.05376,0.08764 0.0825,0.10959 0.06385,0.04878 -0.042,-0.136995 0.133831,-0.239991 0.409711,-0.239991 0.14449,0 0.263311,0.06153 0.418496,0.216713 0.119192,0.119192 0.216712,0.196635 0.216712,0.172095 0,-0.02454 -0.02664,-0.07186 -0.05919,-0.105169 -0.09188,-0.09398 -0.105914,-1.482548 -0.0159,-1.572559 0.0413,-0.0413 0.0751,-0.112385 0.0751,-0.157958 0,-0.04557 0.02588,-0.08286 0.0575,-0.08286 0.119949,0 0.197454,0.425686 0.197454,1.08448 0,0.58651 -0.01802,0.705924 -0.12748,0.845086 -0.112354,0.142836 -0.127477,0.258576 -0.127477,0.975598 0,0.684038 0.01768,0.833073 0.111072,0.936271 0.118038,0.13043 0.117308,0.117853 0.2383,4.110021 l 0.04491,1.481932 H 29.627582 28.56454 Z m 1.549646,-3.649335 c -0.0083,-0.140375 0.01925,-0.289525 0.06116,-0.331444 0.04192,-0.04192 0.07622,-0.09629 0.07622,-0.120834 0,-0.02454 -0.09752,0.0529 -0.216712,0.172096 -0.22993,0.229929 -0.497016,0.28268 -0.748853,0.147901 -0.122551,-0.06559 -0.123387,-0.07455 -0.0178,-0.191217 0.06093,-0.06732 0.176408,-0.122406 0.256629,-0.122406 0.139739,0 0.347095,-0.211641 0.341749,-0.348813 -0.0014,-0.03602 -0.04534,0.01339 -0.09764,0.109792 -0.06264,0.115455 -0.146853,0.175282 -0.246739,0.175282 -0.201333,0 -0.481675,0.336721 -0.481675,0.578543 v 0.186327 h 0.544366 0.544363 z m -0.912637,-0.879767 c -0.01964,-0.01962 -0.07106,-4.1e-5 -0.114291,0.04352 -0.06248,0.06295 -0.05516,0.07027 0.03568,0.03568 0.06286,-0.02394 0.09824,-0.05958 0.07861,-0.0792 z M 29.88204,47.74653 v -0.531157 l -0.270892,-1.3e-5 -0.270891,-1.4e-5 v 0.53116 0.531159 l 0.270891,1.1e-5 0.270892,1.1e-5 z m -0.08986,-0.896062 c -0.07801,-0.094 -0.467884,-0.179927 -0.412929,-0.09101 0.01776,0.02871 0.100587,0.05221 0.184089,0.05221 0.0835,0 0.169552,0.02868 0.191216,0.06374 0.02166,0.03506 0.05555,0.06374 0.07531,0.06374 0.01976,0 0.0028,-0.0399 -0.03768,-0.08868 z m -3.859772,6.580939 c -0.06268,-0.257904 -0.253737,-0.789977 -0.424577,-1.182385 -0.249672,-0.573473 -0.31062,-0.783453 -0.31062,-1.070168 0,-0.785123 0.594236,-1.387029 1.637669,-1.658808 0.459581,-0.119706 1.12583,-0.125698 1.221037,-0.01098 0.04827,0.05816 0.05559,0.365688 0.02373,0.997152 -0.0494,0.979404 -0.03717,0.949073 -0.428491,1.062827 -0.130494,0.03793 -0.228682,0.132173 -0.309199,0.296766 -0.115556,0.236225 -0.115217,0.255866 0.01653,0.955756 0.07398,0.393017 0.13424,0.762837 0.133918,0.821825 -7.23e-4,0.13809 -0.0956,0.16242 -0.834854,0.214158 l -0.611184,0.04278 z m 6.326553,0.398966 c -0.200121,-0.02221 -0.392424,-0.06893 -0.427337,-0.103842 -0.04214,-0.04214 -0.01913,-0.314447 0.06849,-0.810226 0.07258,-0.410711 0.11313,-0.821781 0.09011,-0.913487 -0.05826,-0.232122 -0.31853,-0.474457 -0.509568,-0.474457 -0.256494,0 -0.297099,-0.169899 -0.277788,-1.16233 l 0.01769,-0.909193 0.54178,0.0029 c 0.935559,0.0051 1.685501,0.342981 2.083814,0.938973 0.376455,0.563289 0.355096,0.921975 -0.117402,1.971589 -0.137448,0.30533 -0.302877,0.764251 -0.36762,1.019825 l -0.117715,0.464685 -0.310298,0.008 c -0.170667,0.0044 -0.474035,-0.01022 -0.674156,-0.03242 z m -2.02636,-10.927936 c -0.06694,-0.141387 -0.09006,-0.359631 -0.0771,-0.727792 l 0.01853,-0.525848 h 0.194611 0.194612 l -0.0219,0.635243 c -0.01581,0.458324 -0.04854,0.661019 -0.11752,0.727793 -0.0841,0.08141 -0.107114,0.06825 -0.191216,-0.109396 z"
       id="path300" />
  </g>
</svg>
