<?xml version="1.0" encoding="UTF-8" standalone="no"?>
<svg
   xmlns:dc="http://purl.org/dc/elements/1.1/"
   xmlns:cc="http://creativecommons.org/ns#"
   xmlns:rdf="http://www.w3.org/1999/02/22-rdf-syntax-ns#"
   xmlns:svg="http://www.w3.org/2000/svg"
   xmlns="http://www.w3.org/2000/svg"
   xmlns:sodipodi="http://sodipodi.sourceforge.net/DTD/sodipodi-0.dtd"
   xmlns:inkscape="http://www.inkscape.org/namespaces/inkscape"
   width="174.3992mm"
   height="139.78287mm"
   viewBox="0 0 174.3992 139.78286"
   version="1.1"
   id="svg1011"
   inkscape:version="1.0.1 (3bc2e813f5, 2020-09-07)"
   sodipodi:docname="Nepalese Election Symbol Plough.svg">
  <defs
     id="defs1005" />
  <sodipodi:namedview
     id="base"
     pagecolor="#ffffff"
     bordercolor="#666666"
     borderopacity="1.0"
     inkscape:pageopacity="0.0"
     inkscape:pageshadow="2"
     inkscape:zoom="0.35"
     inkscape:cx="391.00186"
     inkscape:cy="235.58512"
     inkscape:document-units="mm"
     inkscape:current-layer="layer1"
     inkscape:document-rotation="0"
     showgrid="false"
     fit-margin-top="0.1"
     fit-margin-left="0.1"
     fit-margin-right="0.1"
     fit-margin-bottom="0.1"
     inkscape:window-width="1267"
     inkscape:window-height="1040"
     inkscape:window-x="52"
     inkscape:window-y="0"
     inkscape:window-maximized="0" />
  <metadata
     id="metadata1008">
    <rdf:RDF>
      <cc:Work
         rdf:about="">
        <dc:format>image/svg+xml</dc:format>
        <dc:type
           rdf:resource="http://purl.org/dc/dcmitype/StillImage" />
        <dc:title></dc:title>
      </cc:Work>
    </rdf:RDF>
  </metadata>
  <g
     inkscape:label="Layer 1"
     inkscape:groupmode="layer"
     id="layer1"
     transform="translate(-2.3807581,-85.834772)">
    <path
       style="fill:#000000;stroke-width:0.269531"
       d="m 140.4466,224.41672 -2.10711,-1.13992 -5.72228,-0.2026 c -3.14726,-0.11143 -7.75837,-0.39343 -10.2469,-0.62667 -3.96502,-0.37163 -10.0046,-0.91027 -20.22764,-1.80403 -1.61022,-0.14078 -5.742254,-0.50523 -9.182282,-0.8099 -3.440028,-0.30467 -9.787782,-0.86334 -14.106117,-1.24148 -14.090006,-1.23378 -35.695634,-3.13585 -40.38752,-3.55554 -2.52445,-0.22582 -4.883624,-0.5251 -5.242605,-0.66507 -1.138616,-0.44396 -1.430792,-1.11706 -2.821825,-6.50077 -0.543294,-2.10271 -0.617389,-2.23405 -1.039344,-1.84244 -1.097176,1.0183 -1.827626,0.26776 -2.578139,-2.64902 -0.260729,-1.01334 -0.582547,-1.84243 -0.715142,-1.84243 -0.132593,0 -2.993892,1.41252 -6.358444,3.13895 -7.287323,3.73928 -7.514095,3.78445 -8.565255,1.70595 -0.398599,-0.78815 -0.969122,-1.75511 -1.267831,-2.14879 -0.5965816,-0.78627 -0.7155429,-2.29956 -0.2507869,-3.19015 0.164237,-0.31472 3.2953769,-2.25877 7.1462109,-4.43691 3.769639,-2.13222 6.898412,-3.91617 6.952823,-3.96433 0.0544,-0.0482 -0.16051,-1.07362 -0.477599,-2.27877 -0.68967,-2.62128 -0.49024,-3.42506 0.801574,-3.23062 0.426128,0.0641 0.774783,0.0568 0.774783,-0.0163 0,-0.12277 -2.243396,-8.52632 -8.667499,-32.46766 -1.381013,-5.14674 -2.51093,-9.59349 -2.51093,-9.88165 0,-1.76972 0.962052,-2.47602 8.317283,-6.10617 2.891091,-1.42689 5.256525,-2.69925 5.256525,-2.82745 0,-0.26559 -11.398344,-33.42125 -11.539374,-33.56588 -0.05054,-0.0519 -2.834574,-0.78084 -6.1866473,-1.61991 C 6.1424473,99.80808 3.1902466,98.931391 2.9340724,98.698957 2.3965119,98.211202 2.3235648,97.253814 2.7876872,96.777827 c 0.5121057,-0.52518 1.4636097,-0.398986 6.6363984,0.88014 2.6861284,0.664225 4.9321714,1.158131 4.9912144,1.09758 0.05907,-0.06059 -0.629837,-2.231486 -1.530847,-4.824292 -0.901017,-2.592814 -1.637058,-5.024647 -1.635647,-5.404087 0.0038,-0.958178 0.706044,-1.890321 1.767336,-2.345084 0.772919,-0.331192 1.022529,-0.330356 1.807587,0.0062 0.500954,0.214661 1.085148,0.676922 1.298204,1.027232 0.213049,0.350319 3.962138,11.046653 8.331308,23.769634 4.369173,12.72297 8.046903,23.13268 8.172746,23.13268 0.125835,0 2.455123,-0.98981 5.176184,-2.19961 6.529545,-2.90303 7.91119,-2.95606 9.105916,-0.34947 0.287257,0.62672 1.616931,3.88252 2.954833,7.2351 10.117846,25.35384 11.679383,29.23872 11.80387,29.36638 0.06149,0.0631 0.477082,-0.16225 0.923513,-0.50074 0.446423,-0.33849 1.165006,-0.61543 1.596854,-0.61543 1.371644,0 2.139229,0.7963 3.401226,3.52846 0.652259,1.41211 1.256348,2.56747 1.342424,2.56747 0.08607,0 23.63403,-12.04977 52.328793,-26.77726 46.97435,-24.10943 52.26566,-26.76172 53.10944,-26.62129 1.97072,0.32797 2.9545,2.60877 1.8498,4.28865 -0.27505,0.41825 -2.83795,1.91271 -6.98047,4.07038 -3.60022,1.87521 -6.54585,3.51134 -6.54585,3.63583 0,0.12449 0.71861,1.56016 1.59692,3.19039 1.88983,3.50775 2.0323,4.50862 0.81893,5.753 -0.91408,0.93743 -2.45516,1.08015 -3.39157,0.31412 -0.31706,-0.25938 -1.3243,-1.88412 -2.23829,-3.61055 -0.914,-1.72642 -1.69548,-3.18287 -1.73664,-3.23656 -0.0412,-0.0537 -5.80086,2.87867 -12.79936,6.51633 -6.99848,3.63766 -26.43808,13.73735 -43.19907,22.44376 -16.760991,8.70641 -30.688072,16.07954 -30.949058,16.38473 -0.260981,0.30521 -0.437718,0.66813 -0.392739,0.80651 0.04496,0.13838 2.893421,1.75558 6.32989,3.59378 3.436462,1.83819 10.499909,5.62167 15.696545,8.40775 11.009632,5.90258 15.706372,8.41544 36.596062,19.57966 9.52244,5.08913 15.71731,8.55746 16.1688,9.05245 1.23261,1.35133 0.94516,3.38686 -0.59352,4.20287 -1.18673,0.62937 -1.86365,0.51075 -4.15282,-0.72766 z m -13.97309,-7.41994 c -0.061,-0.0541 -3.04525,-1.66857 -6.63165,-3.58774 -3.58642,-1.91916 -9.0359,-4.83773 -12.10999,-6.48571 -3.07406,-1.64796 -9.721224,-5.20743 -14.771482,-7.90991 -5.050258,-2.70249 -11.69743,-6.26453 -14.771505,-7.91564 -3.074069,-1.65111 -7.680304,-4.11653 -10.23607,-5.47872 -5.255145,-2.80089 -6.433587,-3.82342 -7.764484,-6.73723 -0.751844,-1.64608 -2.255095,-5.37235 -13.268729,-32.89073 -2.2231,-5.55458 -4.071896,-10.13027 -4.108447,-10.16822 -0.03659,-0.0379 -4.787025,2.03144 -10.556597,4.59863 -13.466004,5.99173 -12.752445,5.66668 -12.752445,5.80911 0,0.0673 1.428777,5.44545 3.175073,11.95136 4.674027,17.41338 8.195809,30.59355 10.928147,40.8983 1.333498,5.02915 2.52448,9.39472 2.646625,9.70126 0.204283,0.51268 0.667313,0.59608 5.775701,1.04032 3.054486,0.26564 7.469914,0.65468 9.812065,0.86453 4.023023,0.36046 6.508121,0.58049 18.63072,1.64952 46.469138,4.09786 55.909088,4.91422 56.003068,4.84312 0.0609,-0.0462 0.0609,-0.12816 0,-0.18225 z"
       id="path994" />
  </g>
</svg>
