<?xml version="1.0" encoding="UTF-8" standalone="no"?>
<svg
   xmlns:dc="http://purl.org/dc/elements/1.1/"
   xmlns:cc="http://creativecommons.org/ns#"
   xmlns:rdf="http://www.w3.org/1999/02/22-rdf-syntax-ns#"
   xmlns:svg="http://www.w3.org/2000/svg"
   xmlns="http://www.w3.org/2000/svg"
   xmlns:sodipodi="http://sodipodi.sourceforge.net/DTD/sodipodi-0.dtd"
   xmlns:inkscape="http://www.inkscape.org/namespaces/inkscape"
   width="147.55676mm"
   height="150.26251mm"
   viewBox="0 0 147.55676 150.26251"
   version="1.1"
   id="svg8"
   inkscape:version="1.0.1 (3bc2e813f5, 2020-09-07)"
   sodipodi:docname="Nepal Communist Party.svg">
  <style></style>
  <defs
     id="defs2" />
  <sodipodi:namedview
     id="base"
     pagecolor="#ffffff"
     bordercolor="#666666"
     borderopacity="1.0"
     inkscape:pageopacity="0.0"
     inkscape:pageshadow="2"
     inkscape:zoom="1.4"
     inkscape:cx="399.73057"
     inkscape:cy="281.14688"
     inkscape:document-units="mm"
     inkscape:current-layer="layer1"
     inkscape:document-rotation="0"
     showgrid="false"
     fit-margin-top="0"
     fit-margin-left="0"
     fit-margin-right="0"
     fit-margin-bottom="0"
     inkscape:window-width="1920"
     inkscape:window-height="1017"
     inkscape:window-x="-8"
     inkscape:window-y="-8"
     inkscape:window-maximized="1" />
  <metadata
     id="metadata5">
    <rdf:RDF>
      <cc:Work
         rdf:about="">
        <dc:format>image/svg+xml</dc:format>
        <dc:type
           rdf:resource="http://purl.org/dc/dcmitype/StillImage" />
        <dc:title></dc:title>
      </cc:Work>
    </rdf:RDF>
  </metadata>
  <g
     inkscape:label="Layer 1"
     inkscape:groupmode="layer"
     id="layer1"
     transform="translate(-21.522645,-51.880626)">
    <path
       d="m 92.130786,93.966167 h 1.087863 V 71.968354 h -1.087863 z"
       style="fill:#231f20;fill-opacity:1;fill-rule:nonzero;stroke:none;stroke-width:4.26743"
       id="path1077" />
    <g
       id="g1079"
       transform="matrix(4.2674398,0,0,-4.2674398,71.100844,77.771373)">
      <path
         d="M 0,0 0.227,0.113 2.152,-4.673 1.926,-4.758 0,0"
         style="fill:#231f20;fill-opacity:1;fill-rule:nonzero;stroke:none"
         id="path1081" />
    </g>
    <g
       id="g1083"
       transform="matrix(4.2674398,0,0,-4.2674398,53.693941,90.9449)">
      <path
         d="M 0,0 0.198,0.17 3.767,-3.54 3.597,-3.71 0,0"
         style="fill:#231f20;fill-opacity:1;fill-rule:nonzero;stroke:none"
         id="path1085" />
    </g>
    <g
       id="g1087"
       transform="matrix(4.2674398,0,0,-4.2674398,42.577273,109.67902)">
      <path
         d="M 0,0 0.113,0.227 4.815,-1.869 4.702,-2.096 0,0"
         style="fill:#231f20;fill-opacity:1;fill-rule:nonzero;stroke:none"
         id="path1089" />
    </g>
    <g
       id="g1091"
       transform="matrix(4.2674398,0,0,-4.2674398,39.312681,131.3149)">
      <path
         d="M 0,0 V 0.255 L 5.155,0.085 V -0.17 L 0,0"
         style="fill:#231f20;fill-opacity:1;fill-rule:nonzero;stroke:none"
         id="path1093" />
    </g>
    <g
       id="g1095"
       transform="matrix(4.2674398,0,0,-4.2674398,44.267179,152.46438)">
      <path
         d="M 0,0 -0.085,0.227 4.758,2.011 4.843,1.756 0,0"
         style="fill:#231f20;fill-opacity:1;fill-rule:nonzero;stroke:none"
         id="path1097" />
    </g>
    <g
       id="g1099"
       transform="matrix(4.2674398,0,0,-4.2674398,56.958531,170.35343)">
      <path
         d="M 0,0 -0.17,0.198 3.654,3.654 3.824,3.455 0,0"
         style="fill:#231f20;fill-opacity:1;fill-rule:nonzero;stroke:none"
         id="path1101" />
    </g>
    <g
       id="g1103"
       transform="matrix(4.2674398,0,0,-4.2674398,76.661302,182.55838)">
      <path
         d="M 0,0 -0.255,0.113 1.898,4.786 2.124,4.702 0,0"
         style="fill:#231f20;fill-opacity:1;fill-rule:nonzero;stroke:none"
         id="path1105" />
    </g>
    <path
       d="m 92.130786,185.94231 h 1.087863 v -21.99745 h -1.087863 z"
       style="fill:#231f20;fill-opacity:1;fill-rule:nonzero;stroke:none;stroke-width:4.26743"
       id="path1107" />
    <g
       id="g1109"
       transform="matrix(4.2674398,0,0,-4.2674398,113.76668,183.40757)">
      <path
         d="M 0,0 0.227,0.113 -1.699,4.872 -1.926,4.787 0,0"
         style="fill:#231f20;fill-opacity:1;fill-rule:nonzero;stroke:none"
         id="path1111" />
    </g>
    <g
       id="g1113"
       transform="matrix(4.2674398,0,0,-4.2674398,132.86349,172.89265)">
      <path
         d="M 0,0 0.198,0.17 -3.399,3.88 -3.569,3.71 0,0"
         style="fill:#231f20;fill-opacity:1;fill-rule:nonzero;stroke:none"
         id="path1115" />
    </g>
    <g
       id="g1117"
       transform="matrix(4.2674398,0,0,-4.2674398,146.64305,156.09169)">
      <path
         d="M 0,0 0.113,0.255 -4.588,2.351 -4.702,2.096 0,0"
         style="fill:#231f20;fill-opacity:1;fill-rule:nonzero;stroke:none"
         id="path1119" />
    </g>
    <g
       id="g1121"
       transform="matrix(4.2674398,0,0,-4.2674398,153.16796,135.30065)">
      <path
         d="m 0,0 v 0.283 l -5.155,0.17 V 0.198 L 0,0"
         style="fill:#231f20;fill-opacity:1;fill-rule:nonzero;stroke:none"
         id="path1123" />
    </g>
    <g
       id="g1125"
       transform="matrix(4.2674398,0,0,-4.2674398,151.3543,113.54525)">
      <path
         d="M 0,0 -0.085,0.255 -4.928,-1.501 -4.843,-1.756 0,0"
         style="fill:#231f20;fill-opacity:1;fill-rule:nonzero;stroke:none"
         id="path1127" />
    </g>
    <g
       id="g1129"
       transform="matrix(4.2674398,0,0,-4.2674398,141.56482,94.085802)">
      <path
         d="M 0,0 -0.17,0.198 -3.994,-3.257 -3.824,-3.455 0,0"
         style="fill:#231f20;fill-opacity:1;fill-rule:nonzero;stroke:none"
         id="path1131" />
    </g>
    <g
       id="g1133"
       transform="matrix(4.2674398,0,0,-4.2674398,124.03844,78.978985)">
      <path
         d="M 0,0 -0.226,0.113 -2.379,-4.56 -2.152,-4.673 0,0"
         style="fill:#231f20;fill-opacity:1;fill-rule:nonzero;stroke:none"
         id="path1135" />
    </g>
    <path
       d="m 94.063932,93.966167 h 1.087745 V 63.507695 h -1.087745 z"
       style="fill:#231f20;fill-opacity:1;fill-rule:nonzero;stroke:none;stroke-width:4.26743"
       id="path1137" />
    <g
       id="g1139"
       transform="matrix(4.2674398,0,0,-4.2674398,69.7694,69.189505)">
      <path
         d="M 0,0 0.227,0.085 2.889,-6.514 2.662,-6.599 0,0"
         style="fill:#231f20;fill-opacity:1;fill-rule:nonzero;stroke:none"
         id="path1141" />
    </g>
    <g
       id="g1143"
       transform="matrix(4.2674398,0,0,-4.2674398,49.221677,83.570764)">
      <path
         d="M 0,0 0.198,0.17 5.155,-4.928 4.956,-5.126 0,0"
         style="fill:#231f20;fill-opacity:1;fill-rule:nonzero;stroke:none"
         id="path1145" />
    </g>
    <g
       id="g1147"
       transform="matrix(4.2674398,0,0,-4.2674398,35.685335,104.4812)">
      <path
         d="M 0,0 0.113,0.227 6.599,-2.662 6.514,-2.917 0,0"
         style="fill:#231f20;fill-opacity:1;fill-rule:nonzero;stroke:none"
         id="path1149" />
    </g>
    <g
       id="g1151"
       transform="matrix(4.2674398,0,0,-4.2674398,30.974089,129.01472)">
      <path
         d="M 0,0 V 0.255 L 7.109,0 V -0.255 L 0,0"
         style="fill:#231f20;fill-opacity:1;fill-rule:nonzero;stroke:none"
         id="path1153" />
    </g>
    <g
       id="g1155"
       transform="matrix(4.2674398,0,0,-4.2674398,35.809107,153.5526)">
      <path
         d="M 0,0 -0.113,0.227 6.599,2.662 6.684,2.436 0,0"
         style="fill:#231f20;fill-opacity:1;fill-rule:nonzero;stroke:none"
         id="path1157" />
    </g>
    <g
       id="g1159"
       transform="matrix(4.2674398,0,0,-4.2674398,49.345414,174.46304)">
      <path
         d="M 0,0 -0.17,0.17 5.126,4.956 5.296,4.758 0,0"
         style="fill:#231f20;fill-opacity:1;fill-rule:nonzero;stroke:none"
         id="path1161" />
    </g>
    <g
       id="g1163"
       transform="matrix(4.2674398,0,0,-4.2674398,71.344086,189.45022)">
      <path
         d="M 0,0 -0.227,0.113 2.719,6.599 2.974,6.486 0,0"
         style="fill:#231f20;fill-opacity:1;fill-rule:nonzero;stroke:none"
         id="path1165" />
    </g>
    <path
       d="m 94.063932,194.28515 h 1.087745 v -30.33679 h -1.087745 z"
       style="fill:#231f20;fill-opacity:1;fill-rule:nonzero;stroke:none;stroke-width:4.26743"
       id="path1167" />
    <g
       id="g1169"
       transform="matrix(4.2674398,0,0,-4.2674398,118.72118,190.41468)">
      <path
         d="M 0,0 0.227,0.085 -2.436,6.684 -2.662,6.599 0,0"
         style="fill:#231f20;fill-opacity:1;fill-rule:nonzero;stroke:none"
         id="path1171" />
    </g>
    <g
       id="g1173"
       transform="matrix(4.2674398,0,0,-4.2674398,140.11385,177.60383)">
      <path
         d="M 0,0 0.17,0.17 -4.758,5.296 -4.956,5.126 0,0"
         style="fill:#231f20;fill-opacity:1;fill-rule:nonzero;stroke:none"
         id="path1175" />
    </g>
    <g
       id="g1177"
       transform="matrix(4.2674398,0,0,-4.2674398,155.10112,157.66209)">
      <path
         d="M 0,0 0.113,0.227 -6.401,3.116 -6.486,2.889 0,0"
         style="fill:#231f20;fill-opacity:1;fill-rule:nonzero;stroke:none"
         id="path1179" />
    </g>
    <g
       id="g1181"
       transform="matrix(4.2674398,0,0,-4.2674398,161.63031,133.61074)">
      <path
         d="M 0,0 V 0.255 L -7.109,0.51 V 0.255 L 0,0"
         style="fill:#231f20;fill-opacity:1;fill-rule:nonzero;stroke:none"
         id="path1183" />
    </g>
    <g
       id="g1185"
       transform="matrix(4.2674398,0,0,-4.2674398,158.60896,108.83407)">
      <path
         d="M 0,0 -0.085,0.227 -6.769,-2.209 -6.684,-2.436 0,0"
         style="fill:#231f20;fill-opacity:1;fill-rule:nonzero;stroke:none"
         id="path1187" />
    </g>
    <g
       id="g1189"
       transform="matrix(4.2674398,0,0,-4.2674398,146.51932,86.954932)">
      <path
         d="M 0,0 -0.17,0.17 -5.466,-4.588 -5.296,-4.787 0,0"
         style="fill:#231f20;fill-opacity:1;fill-rule:nonzero;stroke:none"
         id="path1191" />
    </g>
    <g
       id="g1193"
       transform="matrix(4.2674398,0,0,-4.2674398,125.7326,70.516752)">
      <path
         d="M 0,0 -0.227,0.113 -3.201,-6.373 -2.946,-6.486 0,0"
         style="fill:#231f20;fill-opacity:1;fill-rule:nonzero;stroke:none"
         id="path1195" />
    </g>
    <path
       d="m 95.997091,93.966167 h 1.087732 V 56.376822 h -1.087732 z"
       style="fill:#231f20;fill-opacity:1;fill-rule:nonzero;stroke:none;stroke-width:4.26743"
       id="path1197" />
    <g
       id="g1199"
       transform="matrix(4.2674398,0,0,-4.2674398,68.804943,61.815369)">
      <path
         d="M 0,0 0.255,0.085 3.54,-8.072 3.285,-8.157 0,0"
         style="fill:#231f20;fill-opacity:1;fill-rule:nonzero;stroke:none"
         id="path1201" />
    </g>
    <g
       id="g1203"
       transform="matrix(4.2674398,0,0,-4.2674398,45.718104,77.045935)">
      <path
         d="M 0,0 0.17,0.17 6.288,-6.146 6.089,-6.344 0,0"
         style="fill:#231f20;fill-opacity:1;fill-rule:nonzero;stroke:none"
         id="path1205" />
    </g>
    <g
       id="g1207"
       transform="matrix(4.2674398,0,0,-4.2674398,29.885884,99.889429)">
      <path
         d="M 0,0 0.113,0.255 8.157,-3.342 8.044,-3.569 0,0"
         style="fill:#231f20;fill-opacity:1;fill-rule:nonzero;stroke:none"
         id="path1209" />
    </g>
    <g
       id="g1211"
       transform="matrix(4.2674398,0,0,-4.2674398,23.843193,126.84265)">
      <path
         d="M 0,0 V 0.255 L 8.808,-0.057 V -0.311 L 0,0"
         style="fill:#231f20;fill-opacity:1;fill-rule:nonzero;stroke:none"
         id="path1213" />
    </g>
    <g
       id="g1215"
       transform="matrix(4.2674398,0,0,-4.2674398,28.315492,154.15852)">
      <path
         d="M 0,0 -0.085,0.227 8.185,3.229 8.27,3.002 0,0"
         style="fill:#231f20;fill-opacity:1;fill-rule:nonzero;stroke:none"
         id="path1217" />
    </g>
    <g
       id="g1219"
       transform="matrix(4.2674398,0,0,-4.2674398,42.816231,177.84709)">
      <path
         d="M 0,0 -0.198,0.198 6.344,6.089 6.543,5.891 0,0"
         style="fill:#231f20;fill-opacity:1;fill-rule:nonzero;stroke:none"
         id="path1221" />
    </g>
    <g
       id="g1223"
       transform="matrix(4.2674398,0,0,-4.2674398,66.628546,195.13022)">
      <path
         d="M 0,0 -0.227,0.113 3.427,8.129 3.654,8.015 0,0"
         style="fill:#231f20;fill-opacity:1;fill-rule:nonzero;stroke:none"
         id="path1225" />
    </g>
    <path
       d="m 95.997091,201.53553 h 1.087732 v -37.58934 h -1.087732 z"
       style="fill:#231f20;fill-opacity:1;fill-rule:nonzero;stroke:none;stroke-width:4.26743"
       id="path1227" />
    <g
       id="g1229"
       transform="matrix(4.2674398,0,0,-4.2674398,123.19347,196.33796)">
      <path
         d="M 0,0 0.227,0.085 -3.059,8.242 -3.314,8.157 0,0"
         style="fill:#231f20;fill-opacity:1;fill-rule:nonzero;stroke:none"
         id="path1231" />
    </g>
    <g
       id="g1233"
       transform="matrix(4.2674398,0,0,-4.2674398,146.39981,181.47439)">
      <path
         d="M 0,0 0.198,0.198 -5.919,6.514 -6.089,6.344 0,0"
         style="fill:#231f20;fill-opacity:1;fill-rule:nonzero;stroke:none"
         id="path1235" />
    </g>
    <g
       id="g1237"
       transform="matrix(4.2674398,0,0,-4.2674398,162.47526,158.86981)">
      <path
         d="M 0,0 0.113,0.227 -7.93,3.824 -8.044,3.569 0,0"
         style="fill:#231f20;fill-opacity:1;fill-rule:nonzero;stroke:none"
         id="path1239" />
    </g>
    <g
       id="g1241"
       transform="matrix(4.2674398,0,0,-4.2674398,168.88067,131.91659)">
      <path
         d="M 0,0 V 0.255 L -8.78,0.567 -8.808,0.312 0,0"
         style="fill:#231f20;fill-opacity:1;fill-rule:nonzero;stroke:none"
         id="path1243" />
    </g>
    <g
       id="g1245"
       transform="matrix(4.2674398,0,0,-4.2674398,164.65165,104.60073)">
      <path
         d="M 0,0 -0.085,0.255 -8.355,-2.776 -8.27,-3.002 0,0"
         style="fill:#231f20;fill-opacity:1;fill-rule:nonzero;stroke:none"
         id="path1247" />
    </g>
    <g
       id="g1249"
       transform="matrix(4.2674398,0,0,-4.2674398,150.62886,80.792761)">
      <path
         d="M 0,0 -0.17,0.198 -6.713,-5.693 -6.543,-5.891 0,0"
         style="fill:#231f20;fill-opacity:1;fill-rule:nonzero;stroke:none"
         id="path1251" />
    </g>
    <g
       id="g1253"
       transform="matrix(4.2674398,0,0,-4.2674398,127.05979,63.14685)">
      <path
         d="M 0,0 -0.255,0.085 -3.909,-7.902 -3.682,-8.015 0,0"
         style="fill:#231f20;fill-opacity:1;fill-rule:nonzero;stroke:none"
         id="path1255" />
    </g>
    <path
       d="m 97.810749,93.966167 h 1.208338 V 63.507695 h -1.208338 z"
       style="fill:#231f20;fill-opacity:1;fill-rule:nonzero;stroke:none;stroke-width:4.26743"
       id="path1257" />
    <g
       id="g1259"
       transform="matrix(4.2674398,0,0,-4.2674398,73.277244,67.738629)">
      <path
         d="M 0,0 0.255,0.085 2.917,-6.514 2.662,-6.599 0,0"
         style="fill:#231f20;fill-opacity:1;fill-rule:nonzero;stroke:none"
         id="path1261" />
    </g>
    <g
       id="g1263"
       transform="matrix(4.2674398,0,0,-4.2674398,52.004034,80.912155)">
      <path
         d="M 0,0 0.198,0.198 5.127,-4.928 4.957,-5.126 0,0"
         style="fill:#231f20;fill-opacity:1;fill-rule:nonzero;stroke:none"
         id="path1265" />
    </g>
    <g
       id="g1267"
       transform="matrix(4.2674398,0,0,-4.2674398,37.255761,100.97764)">
      <path
         d="M 0,0 0.113,0.227 6.599,-2.662 6.514,-2.917 0,0"
         style="fill:#231f20;fill-opacity:1;fill-rule:nonzero;stroke:none"
         id="path1269" />
    </g>
    <g
       id="g1271"
       transform="matrix(4.2674398,0,0,-4.2674398,31.093591,125.27225)">
      <path
         d="M 0,0 V 0.283 L 7.137,0.028 7.109,-0.227 0,0"
         style="fill:#231f20;fill-opacity:1;fill-rule:nonzero;stroke:none"
         id="path1273" />
    </g>
    <g
       id="g1275"
       transform="matrix(4.2674398,0,0,-4.2674398,34.477663,149.92528)">
      <path
         d="M 0,0 -0.085,0.227 6.599,2.662 6.684,2.436 0,0"
         style="fill:#231f20;fill-opacity:1;fill-rule:nonzero;stroke:none"
         id="path1277" />
    </g>
    <g
       id="g1279"
       transform="matrix(4.2674398,0,0,-4.2674398,46.806295,171.68068)">
      <path
         d="M 0,0 -0.17,0.198 5.126,4.956 5.296,4.787 0,0"
         style="fill:#231f20;fill-opacity:1;fill-rule:nonzero;stroke:none"
         id="path1281" />
    </g>
    <g
       id="g1283"
       transform="matrix(4.2674398,0,0,-4.2674398,67.836254,187.75609)">
      <path
         d="M 0,0 -0.227,0.113 2.719,6.571 2.974,6.458 0,0"
         style="fill:#231f20;fill-opacity:1;fill-rule:nonzero;stroke:none"
         id="path1285" />
    </g>
    <path
       d="m 97.810749,194.28515 h 1.208338 v -30.33679 h -1.208338 z"
       style="fill:#231f20;fill-opacity:1;fill-rule:nonzero;stroke:none;stroke-width:4.26743"
       id="path1287" />
    <g
       id="g1289"
       transform="matrix(4.2674398,0,0,-4.2674398,122.22477,188.96804)">
      <path
         d="M 0,0 0.255,0.085 -2.407,6.684 -2.662,6.599 0,0"
         style="fill:#231f20;fill-opacity:1;fill-rule:nonzero;stroke:none"
         id="path1291" />
    </g>
    <g
       id="g1293"
       transform="matrix(4.2674398,0,0,-4.2674398,142.89625,174.94522)">
      <path
         d="M 0,0 0.17,0.17 -4.758,5.296 -4.956,5.126 0,0"
         style="fill:#231f20;fill-opacity:1;fill-rule:nonzero;stroke:none"
         id="path1295" />
    </g>
    <g
       id="g1297"
       transform="matrix(4.2674398,0,0,-4.2674398,156.67581,154.15852)">
      <path
         d="M 0,0 0.113,0.227 -6.401,3.115 -6.514,2.889 0,0"
         style="fill:#231f20;fill-opacity:1;fill-rule:nonzero;stroke:none"
         id="path1299" />
    </g>
    <g
       id="g1301"
       transform="matrix(4.2674398,0,0,-4.2674398,161.74978,129.74028)">
      <path
         d="M 0,0 V 0.255 L -7.109,0.51 V 0.227 L 0,0"
         style="fill:#231f20;fill-opacity:1;fill-rule:nonzero;stroke:none"
         id="path1303" />
    </g>
    <g
       id="g1305"
       transform="matrix(4.2674398,0,0,-4.2674398,157.2775,105.20677)">
      <path
         d="M 0,0 -0.085,0.227 -6.769,-2.209 -6.684,-2.436 0,0"
         style="fill:#231f20;fill-opacity:1;fill-rule:nonzero;stroke:none"
         id="path1307" />
    </g>
    <g
       id="g1309"
       transform="matrix(4.2674398,0,0,-4.2674398,143.98445,84.176807)">
      <path
         d="M 0,0 -0.17,0.198 -5.466,-4.56 -5.296,-4.758 0,0"
         style="fill:#231f20;fill-opacity:1;fill-rule:nonzero;stroke:none"
         id="path1311" />
    </g>
    <g
       id="g1313"
       transform="matrix(4.2674398,0,0,-4.2674398,122.22477,68.94624)">
      <path
         d="M 0,0 -0.227,0.113 -3.2,-6.344 -2.946,-6.458 0,0"
         style="fill:#231f20;fill-opacity:1;fill-rule:nonzero;stroke:none"
         id="path1315" />
    </g>
    <path
       d="m 99.743895,93.966167 h 1.208825 V 71.968354 h -1.208825 z"
       style="fill:#231f20;fill-opacity:1;fill-rule:nonzero;stroke:none;stroke-width:4.26743"
       id="path1317" />
    <g
       id="g1319"
       transform="matrix(4.2674398,0,0,-4.2674398,78.231741,74.869501)">
      <path
         d="M 0,0 0.227,0.113 2.153,-4.673 1.926,-4.758 0,0"
         style="fill:#231f20;fill-opacity:1;fill-rule:nonzero;stroke:none"
         id="path1321" />
    </g>
    <g
       id="g1323"
       transform="matrix(4.2674398,0,0,-4.2674398,59.254409,85.627683)">
      <path
         d="M 0,0 0.198,0.17 3.767,-3.512 3.569,-3.71 0,0"
         style="fill:#231f20;fill-opacity:1;fill-rule:nonzero;stroke:none"
         id="path1325" />
    </g>
    <g
       id="g1327"
       transform="matrix(4.2674398,0,0,-4.2674398,45.718104,102.66755)">
      <path
         d="M 0,0 0.113,0.227 4.815,-1.869 4.702,-2.096 0,0"
         style="fill:#231f20;fill-opacity:1;fill-rule:nonzero;stroke:none"
         id="path1329" />
    </g>
    <g
       id="g1331"
       transform="matrix(4.2674398,0,0,-4.2674398,39.555933,123.57811)">
      <path
         d="M 0,0 V 0.255 L 5.155,0.085 V -0.17 L 0,0"
         style="fill:#231f20;fill-opacity:1;fill-rule:nonzero;stroke:none"
         id="path1333" />
    </g>
    <g
       id="g1335"
       transform="matrix(4.2674398,0,0,-4.2674398,41.728037,145.21399)">
      <path
         d="M 0,0 -0.085,0.227 4.73,1.983 4.843,1.756 0,0"
         style="fill:#231f20;fill-opacity:1;fill-rule:nonzero;stroke:none"
         id="path1337" />
    </g>
    <g
       id="g1339"
       transform="matrix(4.2674398,0,0,-4.2674398,51.760795,164.54969)">
      <path
         d="M 0,0 -0.17,0.198 3.654,3.625 3.823,3.427 0,0"
         style="fill:#231f20;fill-opacity:1;fill-rule:nonzero;stroke:none"
         id="path1341" />
    </g>
    <g
       id="g1343"
       transform="matrix(4.2674398,0,0,-4.2674398,69.649897,179.29796)">
      <path
         d="M 0,0 -0.255,0.113 1.898,4.787 2.124,4.673 0,0"
         style="fill:#231f20;fill-opacity:1;fill-rule:nonzero;stroke:none"
         id="path1345" />
    </g>
    <path
       d="m 99.743895,185.94231 h 1.208825 v -21.99745 h -1.208825 z"
       style="fill:#231f20;fill-opacity:1;fill-rule:nonzero;stroke:none;stroke-width:4.26743"
       id="path1347" />
    <g
       id="g1349"
       transform="matrix(4.2674398,0,0,-4.2674398,120.89758,180.50569)">
      <path
         d="M 0,0 0.227,0.113 -1.699,4.871 -1.926,4.786 0,0"
         style="fill:#231f20;fill-opacity:1;fill-rule:nonzero;stroke:none"
         id="path1351" />
    </g>
    <g
       id="g1353"
       transform="matrix(4.2674398,0,0,-4.2674398,138.42396,167.57109)">
      <path
         d="M 0,0 0.17,0.17 -3.399,3.88 -3.597,3.71 0,0"
         style="fill:#231f20;fill-opacity:1;fill-rule:nonzero;stroke:none"
         id="path1355" />
    </g>
    <g
       id="g1357"
       transform="matrix(4.2674398,0,0,-4.2674398,149.78391,149.08034)">
      <path
         d="M 0,0 0.113,0.255 -4.588,2.351 -4.702,2.096 0,0"
         style="fill:#231f20;fill-opacity:1;fill-rule:nonzero;stroke:none"
         id="path1359" />
    </g>
    <g
       id="g1361"
       transform="matrix(4.2674398,0,0,-4.2674398,153.41121,127.56807)">
      <path
         d="M 0,0 V 0.255 L -5.126,0.453 -5.155,0.17 0,0"
         style="fill:#231f20;fill-opacity:1;fill-rule:nonzero;stroke:none"
         id="path1363" />
    </g>
    <g
       id="g1365"
       transform="matrix(4.2674398,0,0,-4.2674398,148.69571,106.29498)">
      <path
         d="M 0,0 -0.085,0.227 -4.928,-1.53 -4.843,-1.756 0,0"
         style="fill:#231f20;fill-opacity:1;fill-rule:nonzero;stroke:none"
         id="path1367" />
    </g>
    <g
       id="g1369"
       transform="matrix(4.2674398,0,0,-4.2674398,136.49081,88.405807)">
      <path
         d="M 0,0 -0.198,0.198 -4.022,-3.229 -3.852,-3.427 0,0"
         style="fill:#231f20;fill-opacity:1;fill-rule:nonzero;stroke:none"
         id="path1371" />
    </g>
    <g
       id="g1373"
       transform="matrix(4.2674398,0,0,-4.2674398,117.03127,75.714453)">
      <path
         d="M 0,0 -0.227,0.085 -2.379,-4.588 -2.153,-4.702 0,0"
         style="fill:#231f20;fill-opacity:1;fill-rule:nonzero;stroke:none"
         id="path1375" />
    </g>
    <path
       d="m 101.92029,93.966167 h 1.0881 V 78.252942 h -1.0881 z"
       style="fill:#231f20;fill-opacity:1;fill-rule:nonzero;stroke:none;stroke-width:4.26743"
       id="path1377" />
    <g
       id="g1379"
       transform="matrix(4.2674398,0,0,-4.2674398,82.584527,79.943453)">
      <path
         d="M 0,0 0.227,0.113 1.614,-3.314 1.359,-3.399 0,0"
         style="fill:#231f20;fill-opacity:1;fill-rule:nonzero;stroke:none"
         id="path1381" />
    </g>
    <g
       id="g1383"
       transform="matrix(4.2674398,0,0,-4.2674398,65.177621,88.649071)">
      <path
         d="M 0,0 0.198,0.17 2.719,-2.464 2.549,-2.662 0,0"
         style="fill:#231f20;fill-opacity:1;fill-rule:nonzero;stroke:none"
         id="path1385" />
    </g>
    <g
       id="g1387"
       transform="matrix(4.2674398,0,0,-4.2674398,52.366766,103.2736)">
      <path
         d="M 0,0 0.113,0.227 3.455,-1.274 3.342,-1.501 0,0"
         style="fill:#231f20;fill-opacity:1;fill-rule:nonzero;stroke:none"
         id="path1389" />
    </g>
    <g
       id="g1391"
       transform="matrix(4.2674398,0,0,-4.2674398,45.961343,121.64494)">
      <path
         d="M 0,0 V 0.255 L 3.682,0.113 3.654,-0.142 0,0"
         style="fill:#231f20;fill-opacity:1;fill-rule:nonzero;stroke:none"
         id="path1393" />
    </g>
    <g
       id="g1395"
       transform="matrix(4.2674398,0,0,-4.2674398,46.925775,141.10439)">
      <path
         d="M 0,0 -0.085,0.227 3.342,1.501 3.455,1.246 0,0"
         style="fill:#231f20;fill-opacity:1;fill-rule:nonzero;stroke:none"
         id="path1397" />
    </g>
    <g
       id="g1399"
       transform="matrix(4.2674398,0,0,-4.2674398,55.025385,158.7503)">
      <path
         d="M 0,0 -0.17,0.198 2.549,2.634 2.747,2.436 0,0"
         style="fill:#231f20;fill-opacity:1;fill-rule:nonzero;stroke:none"
         id="path1401" />
    </g>
    <g
       id="g1403"
       transform="matrix(4.2674398,0,0,-4.2674398,70.375371,172.64939)">
      <path
         d="M 0,0 -0.255,0.085 1.275,3.427 1.501,3.314 0,0"
         style="fill:#231f20;fill-opacity:1;fill-rule:nonzero;stroke:none"
         id="path1405" />
    </g>
    <path
       d="m 101.92029,179.54111 h 1.0881 v -15.59189 h -1.0881 z"
       style="fill:#231f20;fill-opacity:1;fill-rule:nonzero;stroke:none;stroke-width:4.26743"
       id="path1407" />
    <g
       id="g1409"
       transform="matrix(4.2674398,0,0,-4.2674398,120.53487,173.857)">
      <path
         d="M 0,0 0.227,0.113 -1.133,3.512 -1.388,3.399 0,0"
         style="fill:#231f20;fill-opacity:1;fill-rule:nonzero;stroke:none"
         id="path1411" />
    </g>
    <g
       id="g1413"
       transform="matrix(4.2674398,0,0,-4.2674398,135.52212,161.52842)">
      <path
         d="M 0,0 0.198,0.17 -2.351,2.804 -2.549,2.634 0,0"
         style="fill:#231f20;fill-opacity:1;fill-rule:nonzero;stroke:none"
         id="path1415" />
    </g>
    <g
       id="g1417"
       transform="matrix(4.2674398,0,0,-4.2674398,144.82942,144.48856)">
      <path
         d="M 0,0 0.113,0.227 -3.229,1.728 -3.342,1.473 0,0"
         style="fill:#231f20;fill-opacity:1;fill-rule:nonzero;stroke:none"
         id="path1419" />
    </g>
    <g
       id="g1421"
       transform="matrix(4.2674398,0,0,-4.2674398,147.12528,125.27225)">
      <path
         d="M 0,0 0.028,0.255 -3.654,0.397 V 0.142 L 0,0"
         style="fill:#231f20;fill-opacity:1;fill-rule:nonzero;stroke:none"
         id="path1423" />
    </g>
    <g
       id="g1425"
       transform="matrix(4.2674398,0,0,-4.2674398,142.04701,106.53389)">
      <path
         d="M 0,0 -0.085,0.255 -3.54,-0.991 -3.455,-1.246 0,0"
         style="fill:#231f20;fill-opacity:1;fill-rule:nonzero;stroke:none"
         id="path1427" />
    </g>
    <g
       id="g1429"
       transform="matrix(4.2674398,0,0,-4.2674398,130.32437,91.064415)">
      <path
         d="M 0,0 -0.17,0.198 -2.889,-2.237 -2.719,-2.436 0,0"
         style="fill:#231f20;fill-opacity:1;fill-rule:nonzero;stroke:none"
         id="path1431" />
    </g>
    <g
       id="g1433"
       transform="matrix(4.2674398,0,0,-4.2674398,112.43525,80.668892)">
      <path
         d="M 0,0 -0.227,0.113 -1.756,-3.229 -1.529,-3.314 0,0"
         style="fill:#231f20;fill-opacity:1;fill-rule:nonzero;stroke:none"
         id="path1435" />
    </g>
    <path
       d="m 89.8349,93.966167 h 1.087732 V 78.252942 H 89.8349 Z"
       style="fill:#231f20;fill-opacity:1;fill-rule:nonzero;stroke:none;stroke-width:4.26743"
       id="path1437" />
    <g
       id="g1439"
       transform="matrix(4.2674398,0,0,-4.2674398,71.344086,84.415717)">
      <path
         d="M 0,0 0.227,0.085 1.614,-3.314 1.359,-3.399 0,0"
         style="fill:#231f20;fill-opacity:1;fill-rule:nonzero;stroke:none"
         id="path1441" />
    </g>
    <g
       id="g1443"
       transform="matrix(4.2674398,0,0,-4.2674398,56.47631,97.107073)">
      <path
         d="M 0,0 0.198,0.198 2.747,-2.464 2.549,-2.634 0,0"
         style="fill:#231f20;fill-opacity:1;fill-rule:nonzero;stroke:none"
         id="path1445" />
    </g>
    <g
       id="g1447"
       transform="matrix(4.2674398,0,0,-4.2674398,47.412268,114.39021)">
      <path
         d="M 0,0 0.113,0.255 3.455,-1.246 3.37,-1.473 0,0"
         style="fill:#231f20;fill-opacity:1;fill-rule:nonzero;stroke:none"
         id="path1449" />
    </g>
    <g
       id="g1451"
       transform="matrix(4.2674398,0,0,-4.2674398,45.598625,133.73026)">
      <path
         d="M 0,0 V 0.255 L 3.654,0.113 V -0.142 L 0,0"
         style="fill:#231f20;fill-opacity:1;fill-rule:nonzero;stroke:none"
         id="path1453" />
    </g>
    <g
       id="g1455"
       transform="matrix(4.2674398,0,0,-4.2674398,51.035319,152.46438)">
      <path
         d="M 0,0 -0.085,0.227 3.37,1.501 3.455,1.246 0,0"
         style="fill:#231f20;fill-opacity:1;fill-rule:nonzero;stroke:none"
         id="path1457" />
    </g>
    <g
       id="g1459"
       transform="matrix(4.2674398,0,0,-4.2674398,63.124996,167.81435)">
      <path
         d="M 0,0 -0.17,0.198 2.549,2.662 2.719,2.464 0,0"
         style="fill:#231f20;fill-opacity:1;fill-rule:nonzero;stroke:none"
         id="path1461" />
    </g>
    <g
       id="g1463"
       transform="matrix(4.2674398,0,0,-4.2674398,81.253081,177.72757)">
      <path
         d="M 0,0 -0.227,0.113 1.303,3.427 1.529,3.342 0,0"
         style="fill:#231f20;fill-opacity:1;fill-rule:nonzero;stroke:none"
         id="path1465" />
    </g>
    <path
       d="m 89.8349,179.54111 h 1.087732 V 163.94922 H 89.8349 Z"
       style="fill:#231f20;fill-opacity:1;fill-rule:nonzero;stroke:none;stroke-width:4.26743"
       id="path1467" />
    <g
       id="g1469"
       transform="matrix(4.2674398,0,0,-4.2674398,109.29442,178.32926)">
      <path
         d="M 0,0 0.227,0.085 -1.133,3.484 -1.388,3.399 0,0"
         style="fill:#231f20;fill-opacity:1;fill-rule:nonzero;stroke:none"
         id="path1471" />
    </g>
    <g
       id="g1473"
       transform="matrix(4.2674398,0,0,-4.2674398,126.82079,169.99077)">
      <path
         d="M 0,0 0.198,0.198 -2.351,2.832 -2.549,2.662 0,0"
         style="fill:#231f20;fill-opacity:1;fill-rule:nonzero;stroke:none"
         id="path1475" />
    </g>
    <g
       id="g1477"
       transform="matrix(4.2674398,0,0,-4.2674398,139.99438,155.60952)">
      <path
         d="M 0,0 0.085,0.255 -3.257,1.728 -3.371,1.501 0,0"
         style="fill:#231f20;fill-opacity:1;fill-rule:nonzero;stroke:none"
         id="path1479" />
    </g>
    <g
       id="g1481"
       transform="matrix(4.2674398,0,0,-4.2674398,146.76256,137.35755)">
      <path
         d="M 0,0 V 0.283 L -3.654,0.397 -3.682,0.142 0,0"
         style="fill:#231f20;fill-opacity:1;fill-rule:nonzero;stroke:none"
         id="path1483" />
    </g>
    <g
       id="g1485"
       transform="matrix(4.2674398,0,0,-4.2674398,146.15655,117.89813)">
      <path
         d="M 0,0 -0.085,0.255 -3.512,-0.991 -3.427,-1.246 0,0"
         style="fill:#231f20;fill-opacity:1;fill-rule:nonzero;stroke:none"
         id="path1487" />
    </g>
    <g
       id="g1489"
       transform="matrix(4.2674398,0,0,-4.2674398,138.42396,100.00894)">
      <path
         d="M 0,0 -0.17,0.198 -2.889,-2.266 -2.719,-2.464 0,0"
         style="fill:#231f20;fill-opacity:1;fill-rule:nonzero;stroke:none"
         id="path1491" />
    </g>
    <g
       id="g1493"
       transform="matrix(4.2674398,0,0,-4.2674398,123.43673,85.627683)">
      <path
         d="M 0,0 -0.227,0.113 -1.756,-3.229 -1.529,-3.342 0,0"
         style="fill:#231f20;fill-opacity:1;fill-rule:nonzero;stroke:none"
         id="path1495" />
    </g>
    <g
       id="g1497"
       transform="matrix(4.2674398,0,0,-4.2674398,96.359831,164.06752)">
      <path
         d="m 0,0 c 4.532,0 8.214,3.71 8.214,8.242 0,4.532 -3.682,8.214 -8.214,8.214 -4.532,0 -8.214,-3.682 -8.214,-8.214 C -8.214,3.71 -4.532,0 0,0"
         style="fill:#231f20;fill-opacity:1;fill-rule:nonzero;stroke:none"
         id="path1499" />
    </g>
    <g
       id="g1501"
       transform="matrix(4.2674398,0,0,-4.2674398,131.4467,129.01472)">
      <path
         d="m 0,0 c 0,-4.517 -3.662,-8.179 -8.179,-8.179 -4.518,0 -8.18,3.662 -8.18,8.179 0,4.517 3.662,8.179 8.18,8.179 C -3.662,8.179 0,4.517 0,0"
         style="fill:#ffffff;fill-opacity:1;fill-rule:nonzero;stroke:none"
         id="path1503" />
    </g>
    <g
       id="g1505"
       transform="matrix(4.2674398,0,0,-4.2674398,131.4467,129.01472)">
      <path
         d="m 0,0 c 0,-4.517 -3.662,-8.179 -8.179,-8.179 -4.518,0 -8.18,3.662 -8.18,8.179 0,4.517 3.662,8.179 8.18,8.179 C -3.662,8.179 0,4.517 0,0 Z"
         style="fill:none;stroke:#231f20;stroke-width:0.25;stroke-linecap:butt;stroke-linejoin:miter;stroke-miterlimit:10;stroke-dasharray:none;stroke-opacity:1"
         id="path1507" />
    </g>
  </g>
</svg>
